<svg width="12" height="10" viewBox="0 0 12 10" fill="none" xmlns="http://www.w3.org/2000/svg">
<path fill-rule="evenodd" clip-rule="evenodd" d="M7.69911 0.45119C7.49635 0.283803 7.19571 0.294962 7.00601 0.484667L6.97253 0.521485C6.80515 0.724241 6.81631 1.02488 7.00601 1.21458L10.2378 4.4464H0.516129L0.469151 4.44851C0.206117 4.47224 0 4.69331 0 4.96253C0 5.24758 0.231079 5.47866 0.516129 5.47866H10.2378L7.00601 8.71047L6.97253 8.74729C6.80515 8.95005 6.81631 9.25069 7.00601 9.44039C7.20757 9.64195 7.53437 9.64195 7.73593 9.44039L11.8485 5.3278C11.8486 5.3277 11.8487 5.32759 11.8488 5.32749C11.9422 5.23409 12 5.10505 12 4.96253C12 4.82 11.9422 4.69097 11.8488 4.59757L7.73593 0.484667L7.69911 0.45119Z" fill="#0946FF"/>
</svg>
