<svg width="10" height="11" viewBox="0 0 10 11" fill="none" xmlns="http://www.w3.org/2000/svg">
<path fill-rule="evenodd" clip-rule="evenodd" d="M9.00985 0.924791C9.16755 0.794602 9.40138 0.803281 9.54893 0.950829C9.7057 1.1076 9.7057 1.36177 9.54893 1.51854L5.56755 5.49992L9.54893 9.4813C9.70569 9.63807 9.70569 9.89224 9.54893 10.049C9.40138 10.1966 9.16755 10.2052 9.00985 10.075L8.98121 10.049L4.99984 6.06763L1.01846 10.049L0.989823 10.075C0.832125 10.2052 0.598295 10.1966 0.450747 10.049C0.293978 9.89224 0.293978 9.63807 0.450747 9.4813L4.43212 5.49992L0.450747 1.51854C0.293978 1.36177 0.293978 1.1076 0.450747 0.950829C0.598295 0.803281 0.832125 0.794602 0.989823 0.924791L1.01846 0.950829L4.99984 4.93221L8.98121 0.950829L9.00985 0.924791Z" fill="#202124"/>
</svg>
