<svg width="13" height="12" viewBox="0 0 13 12" fill="none" xmlns="http://www.w3.org/2000/svg">
<rect width="12" height="12" transform="matrix(-1 0 0 1 12.2192 0)" fill="#D8D8D8" fill-opacity="0.01"/>
<path fill-rule="evenodd" clip-rule="evenodd" d="M10.2291 1.42479C10.3868 1.2946 10.6206 1.30328 10.7682 1.45083C10.9249 1.6076 10.9249 1.86177 10.7682 2.01854L6.78679 5.99992L10.7682 9.9813C10.9249 10.1381 10.9249 10.3922 10.7682 10.549C10.6206 10.6966 10.3868 10.7052 10.2291 10.575L10.2005 10.549L6.21908 6.56763L2.2377 10.549L2.20906 10.575C2.05136 10.7052 1.81753 10.6966 1.66998 10.549C1.51322 10.3922 1.51322 10.1381 1.66998 9.9813L5.65136 5.99992L1.66999 2.01854C1.51322 1.86177 1.51322 1.6076 1.66999 1.45083C1.81753 1.30328 2.05136 1.2946 2.20906 1.42479L2.2377 1.45083L6.21907 5.43221L10.2005 1.45083L10.2291 1.42479Z" fill="#9AA0A6"/>
</svg>
