<svg width="63" height="17" viewBox="0 0 63 17" fill="none" xmlns="http://www.w3.org/2000/svg">
<path d="M0.0113636 13.1113H2.47159V8.30451H7.20455V6.2761H2.47159V3.50337H7.71591V1.47496H0.0113636V13.1113ZM9.32528 13.1113H11.7457V4.38406H9.32528V13.1113ZM10.5412 3.25906C11.2628 3.25906 11.8537 2.70792 11.8537 2.03178C11.8537 1.36133 11.2628 0.810191 10.5412 0.810191C9.82528 0.810191 9.23438 1.36133 9.23438 2.03178C9.23438 2.70792 9.82528 3.25906 10.5412 3.25906ZM16.1051 8.06587C16.1108 6.94087 16.7812 6.28178 17.7585 6.28178C18.7301 6.28178 19.3153 6.91815 19.3097 7.98633V13.1113H21.7301V7.55451C21.7301 5.52042 20.5369 4.27042 18.7188 4.27042C17.4233 4.27042 16.4858 4.90678 16.0938 5.92383H15.9915V4.38406H13.6847V13.1113H16.1051V8.06587ZM26.8537 13.2534C28.2628 13.2534 28.9957 12.4409 29.331 11.7136H29.4332V13.1113H31.8196V1.47496H29.4048V5.84996H29.331C29.0071 5.13974 28.3082 4.27042 26.848 4.27042C24.9332 4.27042 23.3139 5.75906 23.3139 8.75906C23.3139 11.6795 24.8651 13.2534 26.8537 13.2534ZM27.6207 11.3272C26.4332 11.3272 25.7855 10.2704 25.7855 8.74769C25.7855 7.23633 26.4219 6.19656 27.6207 6.19656C28.7969 6.19656 29.456 7.19087 29.456 8.74769C29.456 10.3045 28.7855 11.3272 27.6207 11.3272ZM36.2301 1.47496H33.8097V13.1113H36.2301V1.47496ZM39.6634 16.367C41.4645 16.367 42.4247 15.4522 42.9134 14.0545L46.3054 4.39542L43.7429 4.38406L41.919 10.7931H41.8281L40.0213 4.38406H37.4759L40.6065 13.3613L40.4645 13.7306C40.1236 14.5204 39.5384 14.5772 38.6861 14.3102L38.1406 16.1227C38.4872 16.2647 39.0497 16.367 39.6634 16.367ZM48.7827 13.2022C49.3452 13.2022 49.8054 12.742 49.8054 12.1795C49.8054 11.617 49.3452 11.1568 48.7827 11.1568C48.2202 11.1568 47.7599 11.617 47.7599 12.1795C47.7599 12.742 48.2202 13.2022 48.7827 13.2022ZM54.7798 13.3159C56.3026 13.3159 57.098 12.4977 57.3707 11.9295H57.4389V13.1113H58.7798V7.36133C58.7798 4.5886 56.6662 4.27042 55.5526 4.27042C54.2344 4.27042 52.7344 4.72496 52.0526 6.31587L53.3253 6.77042C53.6207 6.13406 54.3196 5.45224 55.598 5.45224C56.831 5.45224 57.4389 6.10565 57.4389 7.22496V7.27042C57.4389 7.91815 56.7798 7.86133 55.1889 8.06587C53.5696 8.2761 51.8026 8.63406 51.8026 10.6341C51.8026 12.3386 53.1207 13.3159 54.7798 13.3159ZM54.9844 12.1113C53.9162 12.1113 53.1435 11.6341 53.1435 10.7022C53.1435 9.67951 54.0753 9.36133 55.1207 9.22496C55.6889 9.15678 57.2116 8.99769 57.4389 8.72496V9.95224C57.4389 11.0431 56.5753 12.1113 54.9844 12.1113ZM61.2273 13.1113H62.5682V4.38406H61.2273V13.1113ZM61.9091 2.92951C62.4318 2.92951 62.8636 2.52042 62.8636 2.02042C62.8636 1.52042 62.4318 1.11133 61.9091 1.11133C61.3864 1.11133 60.9545 1.52042 60.9545 2.02042C60.9545 2.52042 61.3864 2.92951 61.9091 2.92951Z" fill="#202124"/>
</svg>
