<svg width="108" height="18" viewBox="0 0 108 18" fill="none" xmlns="http://www.w3.org/2000/svg">
<path d="M7.83301 5H5.4502V4.19531C5.4502 3.38281 5.77832 2.90625 6.75488 2.90625C7.15332 2.90625 7.55957 2.99219 7.8252 3.07812L8.41113 0.578125C7.99707 0.453125 7.08301 0.249999 6.05957 0.249999C3.80176 0.249999 2.12207 1.52344 2.12207 4.13281V5H0.426758V7.5H2.12207V17H5.4502V7.5H7.83301V5ZM16.5615 11.8906C16.5693 13.5 15.4678 14.3437 14.2725 14.3437C13.0146 14.3437 12.2021 13.4609 12.1943 12.0469V5H8.86621V12.6406C8.87402 15.4453 10.5146 17.1563 12.9287 17.1563C14.7334 17.1563 16.0303 16.2266 16.5693 14.8203H16.6943V17H19.8896V5H16.5615V11.8906ZM27.9346 5H25.6768V2.125H22.3486V5H20.708V7.5H22.3486V13.75C22.333 16.1016 23.9346 17.2656 26.3486 17.1641C27.208 17.1328 27.8174 16.9609 28.1533 16.8516L27.6299 14.375C27.4658 14.4062 27.1143 14.4844 26.8018 14.4844C26.1377 14.4844 25.6768 14.2344 25.6768 13.3125V7.5H27.9346V5ZM36.7979 11.8906C36.8057 13.5 35.7041 14.3437 34.5088 14.3437C33.251 14.3437 32.4385 13.4609 32.4307 12.0469V5H29.1025V12.6406C29.1104 15.4453 30.751 17.1563 33.165 17.1563C34.9697 17.1563 36.2666 16.2266 36.8057 14.8203H36.9307V17H40.126V5H36.7979V11.8906ZM41.7881 17H45.1162V10.2109C45.1162 8.73437 46.1943 7.71875 47.6631 7.71875C48.124 7.71875 48.7568 7.79687 49.0693 7.89844V4.94531C48.7725 4.875 48.3584 4.82812 48.0225 4.82812C46.6787 4.82812 45.5771 5.60937 45.1396 7.09375H45.0146V5H41.7881V17ZM54.7002 17.2344C57.6689 17.2344 59.6689 15.7891 60.1377 13.5625L57.0596 13.3594C56.7236 14.2734 55.8643 14.75 54.7549 14.75C53.0908 14.75 52.0361 13.6484 52.0361 11.8594V11.8516H60.208V10.9375C60.208 6.85938 57.7393 4.84375 54.5674 4.84375C51.0361 4.84375 48.7471 7.35156 48.7471 11.0547C48.7471 14.8594 51.0049 17.2344 54.7002 17.2344ZM52.0361 9.78906C52.1064 8.42187 53.1455 7.32812 54.6221 7.32812C56.0674 7.32812 57.0674 8.35937 57.0752 9.78906H52.0361ZM61.9893 17H63.7705V15.1562H63.9893C64.3955 15.8125 65.1768 17.25 67.4893 17.25C70.4893 17.25 72.583 14.8437 72.583 11.0313C72.583 7.25 70.4893 4.84375 67.458 4.84375C65.1143 4.84375 64.3955 6.28125 63.9893 6.90625H63.833V1H61.9893V17ZM63.8018 11C63.8018 8.3125 64.9893 6.5 67.2393 6.5C69.583 6.5 70.7393 8.46875 70.7393 11C70.7393 13.5625 69.5518 15.5938 67.2393 15.5938C65.0205 15.5938 63.8018 13.7187 63.8018 11ZM77.9346 17.2813C80.0283 17.2813 81.1221 16.1562 81.4971 15.375H81.5908V17H83.4346V9.09375C83.4346 5.28125 80.5283 4.84375 78.9971 4.84375C77.1846 4.84375 75.1221 5.46875 74.1846 7.65625L75.9346 8.28125C76.3408 7.40625 77.3018 6.46875 79.0596 6.46875C80.7549 6.46875 81.5908 7.36719 81.5908 8.90625V8.96875C81.5908 9.85937 80.6846 9.78125 78.4971 10.0625C76.2705 10.3516 73.8408 10.8437 73.8408 13.5937C73.8408 15.9375 75.6533 17.2813 77.9346 17.2813ZM78.2158 15.625C76.7471 15.625 75.6846 14.9687 75.6846 13.6875C75.6846 12.2812 76.9658 11.8438 78.4033 11.6562C79.1846 11.5625 81.2783 11.3437 81.5908 10.9687V12.6562C81.5908 14.1562 80.4033 15.625 78.2158 15.625ZM87.6436 9.78125C87.6436 7.6875 88.9404 6.5 90.7061 6.5C92.417 6.5 93.4561 7.61719 93.4561 9.5V17H95.2998V9.375C95.2998 6.3125 93.667 4.84375 91.2373 4.84375C89.4248 4.84375 88.2998 5.65625 87.7373 6.875H87.5811V5H85.7998V17H87.6436V9.78125ZM97.6689 17H99.5127V12.5078L100.802 11.3125L105.294 17H107.638L102.192 10.125L107.263 5H104.981L99.7314 10.3438H99.5127V1H97.6689V17Z" fill="white"/>
</svg>
