<svg width="13" height="14" viewBox="0 0 13 14" fill="none" xmlns="http://www.w3.org/2000/svg">
<path d="M6.5 0.5C2.91797 0.5 0 3.41797 0 7C0 10.582 2.91797 13.5 6.5 13.5C10.082 13.5 13 10.582 13 7C13 3.41797 10.082 0.5 6.5 0.5ZM6.5 1.5C9.54297 1.5 12 3.95703 12 7C12 10.043 9.54297 12.5 6.5 12.5C3.45703 12.5 1 10.043 1 7C1 3.95703 3.45703 1.5 6.5 1.5ZM6.55859 3.5C5.34766 3.57031 4.35938 4.58594 4.35938 5.82031H5.35938C5.35938 5.00781 6.0625 4.37109 6.92188 4.51953C7.53516 4.625 8.01953 5.22656 8 5.85938C7.98438 6.41406 7.66016 6.76562 7.18359 6.97656C6.88672 7.10938 6.60547 7.23438 6.36719 7.48438C6.12891 7.73438 6 8.10547 6 8.5H7C7 8.27344 7.03125 8.23828 7.09375 8.17188C7.15234 8.10938 7.31641 8.01172 7.58594 7.89062C8.33203 7.56641 8.97266 6.85156 9 5.89062C9.03516 4.75391 8.21875 3.72656 7.08984 3.53125C6.91016 3.50391 6.73047 3.49219 6.55859 3.5ZM6 9.5V10.5H7V9.5H6Z" fill="#202124"/>
</svg>
