<svg width="13" height="3" viewBox="0 0 13 3" fill="none" xmlns="http://www.w3.org/2000/svg">
<path fill-rule="evenodd" clip-rule="evenodd" d="M11.7331 2.74475C11.0458 2.74475 10.4887 2.18759 10.4887 1.5003C10.4887 0.813016 11.0458 0.255859 11.7331 0.255859C12.4204 0.255859 12.9775 0.813016 12.9775 1.5003C12.9775 2.18759 12.4204 2.74475 11.7331 2.74475ZM5.51087 1.5003C5.51087 2.18759 6.06802 2.74475 6.75531 2.74475C7.4426 2.74475 7.99976 2.18759 7.99976 1.5003C7.99976 0.813016 7.4426 0.255859 6.75531 0.255859C6.06802 0.255859 5.51087 0.813016 5.51087 1.5003ZM0.533084 1.5003C0.533084 2.18759 1.09024 2.74475 1.77753 2.74475C2.46482 2.74475 3.02197 2.18759 3.02197 1.5003C3.02197 0.813016 2.46482 0.255859 1.77753 0.255859C1.09024 0.255859 0.533084 0.813016 0.533084 1.5003Z" fill="#202124"/>
</svg>
