<svg width="16" height="16" viewBox="0 0 16 16" fill="none" xmlns="http://www.w3.org/2000/svg">
<g opacity="0.3">
<path fill-rule="evenodd" clip-rule="evenodd" d="M8 11C9.38071 11 10.5 9.88071 10.5 8.5V3.5C10.5 2.11929 9.38071 1 8 1C6.61929 1 5.5 2.11929 5.5 3.5V8.5C5.5 9.88071 6.61929 11 8 11ZM6.5 3.5C6.5 2.67157 7.17157 2 8 2C8.82843 2 9.5 2.67157 9.5 3.5V8.5C9.5 9.32843 8.82843 10 8 10C7.17157 10 6.5 9.32843 6.5 8.5V3.5ZM11.5 7V8.5C11.5 10.433 9.933 12 8 12C6.067 12 4.5 10.433 4.5 8.5V7H3.5V8.5C3.50109 10.791 5.22321 12.7154 7.5 12.97V14H5.5V15H10.5V14H8.5V12.97C10.7768 12.7154 12.4989 10.791 12.5 8.5V7H11.5Z" fill="#202124"/>
<mask id="mask0" mask-type="alpha" maskUnits="userSpaceOnUse" x="3" y="1" width="10" height="14">
<path fill-rule="evenodd" clip-rule="evenodd" d="M8 11C9.38071 11 10.5 9.88071 10.5 8.5V3.5C10.5 2.11929 9.38071 1 8 1C6.61929 1 5.5 2.11929 5.5 3.5V8.5C5.5 9.88071 6.61929 11 8 11ZM6.5 3.5C6.5 2.67157 7.17157 2 8 2C8.82843 2 9.5 2.67157 9.5 3.5V8.5C9.5 9.32843 8.82843 10 8 10C7.17157 10 6.5 9.32843 6.5 8.5V3.5ZM11.5 7V8.5C11.5 10.433 9.933 12 8 12C6.067 12 4.5 10.433 4.5 8.5V7H3.5V8.5C3.50109 10.791 5.22321 12.7154 7.5 12.97V14H5.5V15H10.5V14H8.5V12.97C10.7768 12.7154 12.4989 10.791 12.5 8.5V7H11.5Z" fill="white"/>
</mask>
<g mask="url(#mask0)">
</g>
</g>
</svg>
