<svg width="17" height="19" viewBox="0 0 17 19" fill="none" xmlns="http://www.w3.org/2000/svg">
<path d="M16.8985 9.32795C16.8985 8.99592 16.6446 8.74201 16.3126 8.74201H12.9923C11.0196 7.33576 9.71103 5.18732 9.37899 2.78498L9.26181 2.00373C9.18368 1.43732 8.89071 0.92951 8.42196 0.577947C7.97274 0.226385 7.40634 0.0896662 6.83993 0.167791C6.27353 0.245916 5.76571 0.538885 5.41415 1.00763C5.06259 1.47638 4.92587 2.02326 5.00399 2.58967L5.12118 3.37092C5.23837 4.1717 5.41415 4.95295 5.66806 5.71467L6.03915 6.78888H3.20712C2.4454 6.78888 1.74228 7.12092 1.25399 7.70685C0.765714 8.29279 0.570401 9.03498 0.70712 9.77717L1.95712 16.8084C2.17196 18.0194 3.22665 18.8983 4.45712 18.8983H10.4532C10.7852 18.8983 11.0392 18.6444 11.0392 18.3123C11.0392 17.9803 10.7852 17.7264 10.4532 17.7264H4.47665C3.81259 17.7264 3.24618 17.2576 3.12899 16.5936L1.879 9.56232C1.80087 9.1717 1.91806 8.76154 2.17196 8.44904C2.42587 8.13654 2.81649 7.96076 3.22665 7.96076H6.85946C7.05478 7.96076 7.23056 7.8631 7.32821 7.70685C7.42587 7.5506 7.46493 7.35529 7.40634 7.17951L6.76181 5.34357C6.52743 4.65998 6.37118 3.93732 6.27353 3.21467L6.15634 2.43342C6.07821 1.90607 6.44931 1.39826 6.99618 1.33967C7.25009 1.3006 7.50399 1.37873 7.71884 1.53498C7.93368 1.69123 8.0704 1.9256 8.08993 2.17951L8.20712 2.96076C8.57821 5.61701 10.0235 8.03888 12.211 9.62092V18.3123C12.211 18.6444 12.4649 18.8983 12.797 18.8983H16.3126C16.4688 18.8983 16.6251 18.8397 16.7227 18.7225C16.8399 18.6053 16.8985 18.4686 16.8985 18.3123V9.32795ZM13.3829 17.7264V9.91389H15.7267V17.7264H13.3829Z" fill="#444B54"/>
</svg>
