<svg width="17" height="19" viewBox="0 0 17 19" fill="none" xmlns="http://www.w3.org/2000/svg">
<path d="M16.7228 0.277344C16.6056 0.160156 16.4688 0.101562 16.3126 0.101562H12.797C12.4649 0.101562 12.211 0.355469 12.211 0.6875V9.37891C10.0235 10.9609 8.57822 13.3828 8.20713 16.0586L8.08994 16.8398C8.05088 17.0938 7.91416 17.3281 7.71885 17.4844C7.504 17.6406 7.2501 17.6992 6.99619 17.6797C6.46885 17.6016 6.09775 17.1133 6.15635 16.5859L6.27353 15.8047C6.37119 15.082 6.54697 14.3594 6.76182 13.6953L7.40635 11.8398C7.46494 11.6641 7.44541 11.4688 7.32822 11.3125C7.21104 11.1562 7.05478 11.0391 6.85947 11.0391H3.20713C2.79697 11.0391 2.42588 10.8633 2.15244 10.5508C1.89854 10.2383 1.78135 9.82813 1.85947 9.4375L3.10947 2.40625C3.22666 1.76172 3.79307 1.27344 4.45713 1.27344H10.4532C10.7853 1.27344 11.0392 1.01953 11.0392 0.6875C11.0392 0.355469 10.7853 0.101562 10.4532 0.101562H4.47666C3.24619 0.101562 2.1915 0.980469 1.97666 2.19141L0.72666 9.22266C0.589941 9.96484 0.804785 10.7266 1.27354 11.293C1.76182 11.8789 2.46494 12.2109 3.22666 12.2109H6.03916L5.66807 13.2852C5.41416 14.0469 5.23838 14.8281 5.12119 15.6289L5.004 16.4102C4.92588 16.9766 5.08213 17.543 5.41416 17.9922C5.74619 18.4414 6.27354 18.7539 6.83994 18.832C6.9376 18.8516 7.03525 18.8516 7.13291 18.8516C7.60166 18.8516 8.05088 18.6953 8.42197 18.4219C8.87119 18.0703 9.18369 17.5625 9.26182 16.9961L9.379 16.2148C9.6915 13.8125 11.0196 11.6641 12.9923 10.2578H16.3126C16.6446 10.2578 16.8985 10.0039 16.8985 9.67188V0.6875C16.8985 0.53125 16.8399 0.375 16.7228 0.277344ZM15.7267 9.08594H13.3829V1.27344H15.7267V9.08594Z" fill="#444B54"/>
</svg>
